<?xml version="1.0" encoding="UTF-8" standalone="no"?>
<!-- Created with Inkscape (http://www.inkscape.org/) -->

<svg
   width="210mm"
   height="297mm"
   viewBox="0 0 210 297"
   version="1.1"
   id="svg5"
   xml:space="preserve"
   inkscape:version="1.2 (dc2aedaf03, 2022-05-15)"
   sodipodi:docname="campana2.svg"
   xmlns:inkscape="http://www.inkscape.org/namespaces/inkscape"
   xmlns:sodipodi="http://sodipodi.sourceforge.net/DTD/sodipodi-0.dtd"
   xmlns="http://www.w3.org/2000/svg"
   xmlns:svg="http://www.w3.org/2000/svg"><sodipodi:namedview
     id="namedview7"
     pagecolor="#505050"
     bordercolor="#ffffff"
     borderopacity="1"
     inkscape:showpageshadow="0"
     inkscape:pageopacity="0"
     inkscape:pagecheckerboard="1"
     inkscape:deskcolor="#505050"
     inkscape:document-units="mm"
     showgrid="false"
     inkscape:zoom="1.0544998"
     inkscape:cx="209.57804"
     inkscape:cy="286.39171"
     inkscape:window-width="1920"
     inkscape:window-height="1017"
     inkscape:window-x="1592"
     inkscape:window-y="-8"
     inkscape:window-maximized="1"
     inkscape:current-layer="layer1" /><defs
     id="defs2" /><g
     inkscape:label="Capa 1"
     inkscape:groupmode="layer"
     id="layer1"><g
       id="g381"><path
         d="m 93.633748,90.522565 c -2.38474,-1.01855 -3.94113,-3.0497 -3.94113,-5.14183 0,-0.96963 1.14731,-1.15831 7.07602,-1.15831 6.991852,0 7.070102,0.0175 6.580382,1.66497 -1.242,4.17027 -5.759962,6.32616 -9.715272,4.63586 z m -19.47264,-11.39233 c 0,-1.47977 0.58737,-2.51858 1.91818,-3.39055 2.80778,-1.83984 4.63416,-6.69951 5.4658,-14.54389 0.40393,-3.80985 1.1087,-8.254413 1.56608,-9.876923 0.98169,-3.4821 4.90517,-7.451111 8.04812,-8.141381 1.42754,-0.31272 2.23137,-0.94866 2.23137,-1.76262 0,-1.77346 1.46091,-3.04743 3.49459,-3.04743 1.30192,0 1.82275,0.51539 2.14431,2.12357 0.33335,1.66671 1.019952,2.30213 3.189282,2.95204 1.52048,0.45599 3.34226,1.46754 4.04836,2.24691 1.22557,1.353991 1.21194,1.441341 -0.3005,1.921441 -4.06351,1.28934 -5.85398,9.468288 -2.89606,13.228683 1.76294,2.24115 5.09332,4.15281 7.23517,4.15281 1.0444,0 1.60417,0.68136 1.97598,2.40363 0.75369,3.4917 2.94054,7.4401 4.71437,8.51158 1.0105,0.60973 1.54074,1.69292 1.54074,3.14334 v 2.2125 H 96.349018 74.161138 Z"
         style="fill:#000000;stroke-width:0.739595"
         id="path248"
         sodipodi:nodetypes="csscccccsccsscccccsccscccc" /><path
         d="m 108.8752,62.286726 c -2.34591,-0.94866 -4.72464,-4.3752 -4.72464,-6.807473 0,-6.892921 7.30962,-10.465692 12.49124,-6.105691 6.60136,5.554831 0.23183,16.144914 -7.7666,12.913164 z m 3.78073,-3.71271 c -0.25141,-0.40707 -0.77029,-0.73901 -1.15307,-0.73901 -0.38279,0 -0.69586,0.33194 -0.69586,0.73901 0,0.40707 0.51888,0.73901 1.15307,0.73901 0.63419,0 0.94744,-0.33369 0.69586,-0.73901 z m -0.0943,-4.992263 c 0.38662,-2.524181 0.26118,-3.143341 -0.63664,-3.143341 -0.80331,0 -1.11813,0.79841 -1.11813,2.835151 0,1.5584 0.22188,3.05704 0.49303,3.328178 0.66983,0.669135 0.71193,0.569545 1.26174,-3.019988 z"
         style="fill:#ff0000;stroke-width:0.739595"
         id="path358" /></g></g></svg>
