<?xml version="1.0" encoding="UTF-8" standalone="no"?>
<!-- Created with Inkscape (http://www.inkscape.org/) -->

<svg
   width="210mm"
   height="297mm"
   viewBox="0 0 210 297"
   version="1.1"
   id="svg5"
   xml:space="preserve"
   inkscape:version="1.2 (dc2aedaf03, 2022-05-15)"
   sodipodi:docname="campanas.svg"
   xmlns:inkscape="http://www.inkscape.org/namespaces/inkscape"
   xmlns:sodipodi="http://sodipodi.sourceforge.net/DTD/sodipodi-0.dtd"
   xmlns="http://www.w3.org/2000/svg"
   xmlns:svg="http://www.w3.org/2000/svg"><sodipodi:namedview
     id="namedview7"
     pagecolor="#505050"
     bordercolor="#ffffff"
     borderopacity="1"
     inkscape:showpageshadow="0"
     inkscape:pageopacity="0"
     inkscape:pagecheckerboard="1"
     inkscape:deskcolor="#505050"
     inkscape:document-units="mm"
     showgrid="false"
     inkscape:zoom="0.52724989"
     inkscape:cx="98.624962"
     inkscape:cy="293.97825"
     inkscape:window-width="1920"
     inkscape:window-height="1017"
     inkscape:window-x="1592"
     inkscape:window-y="-8"
     inkscape:window-maximized="1"
     inkscape:current-layer="layer1" /><defs
     id="defs2" /><g
     inkscape:label="Capa 1"
     inkscape:groupmode="layer"
     id="layer1"><path
       style="fill:#000000;stroke-width:0.739595"
       d="m 27.477535,133.54608 c -1.830391,-0.73902 -4.724634,-4.20766 -4.724634,-5.66158 0,-0.78269 1.582153,-1.00981 7.026164,-1.00981 5.82399,0 7.02617,0.19392 7.02617,1.1356 0,1.98276 -2.2376,4.64321 -4.59675,5.46573 -2.61819,0.91197 -2.64452,0.91372 -4.73095,0.0699 z m 72.766635,-0.42804 c -2.134909,-1.15831 -3.531655,-3.16972 -3.531655,-5.08504 0,-0.96613 1.108516,-1.15831 6.656355,-1.15831 5.54791,0 6.65635,0.19218 6.65635,1.15831 0,2.13842 -1.57936,4.13638 -4.10355,5.19109 -3.03524,1.26838 -3.14897,1.26663 -5.6775,-0.10482 z m 73.62945,0.0524 c -2.38474,-1.01855 -3.94113,-3.0497 -3.94113,-5.14183 0,-0.96963 1.14731,-1.15831 7.07602,-1.15831 6.99185,0 7.0701,0.0175 6.58038,1.66497 -1.242,4.17027 -5.75996,6.32616 -9.71527,4.63586 z M 7.5918524,121.68552 c 0.117055,-1.37146 0.939928,-2.81699 2.1430699,-3.7632 3.1054647,-2.44277 4.1095267,-5.2491 5.2901497,-14.78534 1.348743,-10.893726 2.715954,-13.957396 7.197014,-16.126746 1.769143,-0.85607 3.588671,-1.55664 4.043379,-1.55664 0.45477,0 0.93207,-0.91547 1.06083,-2.03395 0.40025,-3.47913 5.78099,-2.93334 5.78099,0.58702 0,0.84733 0.73832,1.49549 2.0339,1.78621 1.11865,0.25158 2.82898,1.06222 3.80078,1.80368 l 1.76689,1.347 -2.87628,2.63581 c -2.60755,2.38965 -2.87631,2.98174 -2.87631,6.33665 0,4.857046 1.92963,7.489196 6.65965,9.084276 3.38119,1.14084 3.63184,1.40814 4.49445,4.80743 0.64676,2.54846 1.68942,4.27073 3.56999,5.89691 1.79984,1.55665 2.65643,2.92775 2.65643,4.25273 v 1.95551 H 29.869605 7.4024178 Z m 73.5891426,0.2673 c 0,-1.26313 0.91023,-2.84319 2.56296,-4.44823 2.97606,-2.89037 3.74857,-5.32352 4.86025,-15.30876 0.44673,-4.011816 1.08965,-8.024326 1.42911,-8.916906 1.14626,-3.01476 4.55337,-6.31516 7.3999,-7.16808 2.236067,-0.66913 2.919645,-1.29459 3.255185,-2.97178 0.32164,-1.60731 0.84244,-2.12357 2.14431,-2.12357 2.01022,0 3.49459,1.27012 3.49459,2.98924 0,0.76872 1.05122,1.5287 2.87064,2.07413 4.49679,1.347 5.13262,2.65661 2.40482,4.95192 -5.91084,4.97358 -3.16052,15.126886 4.42622,16.340056 2.44872,0.39135 2.79101,0.72155 3.23677,3.12745 0.60414,3.25952 2.95214,7.24128 4.87797,8.27188 0.90323,0.48394 1.41303,1.54791 1.41303,2.94907 v 2.19275 H 103.36889 81.181015 Z m 73.219985,-0.17471 c 0,-1.47977 0.58737,-2.51858 1.91818,-3.39055 2.80778,-1.83984 4.63416,-6.69951 5.4658,-14.54389 0.40393,-3.80985 1.1087,-8.254416 1.56608,-9.876926 0.98169,-3.4821 4.90517,-7.45111 8.04812,-8.14138 1.42754,-0.31272 2.23137,-0.94866 2.23137,-1.76262 0,-1.77346 1.46091,-3.04743 3.49459,-3.04743 1.30192,0 1.82275,0.51539 2.14431,2.12357 0.33335,1.66671 1.01995,2.30213 3.18928,2.95204 1.52048,0.45599 3.34226,1.46754 4.04836,2.24691 1.22557,1.35399 1.21194,1.44134 -0.3005,1.92144 -4.06351,1.28934 -5.85398,9.468288 -2.89606,13.228686 1.76294,2.24115 5.09332,4.15281 7.23517,4.15281 1.0444,0 1.60417,0.68136 1.97598,2.40363 0.75369,3.4917 2.94054,7.4401 4.71437,8.51158 1.0105,0.60973 1.54074,1.69292 1.54074,3.14334 v 2.2125 H 176.58889 154.40101 Z M 40.735965,105.10785 c -1.29563,-0.58003 -2.90603,-2.11745 -3.57854,-3.41798 -3.91511,-7.570956 6.24303,-14.932786 12.27783,-8.898036 5.94159,5.94164 -0.99443,15.761256 -8.69929,12.316016 z m 5.91257,-3.27856 c 0.32915,-0.0524 0.37859,-0.46123 0.11006,-0.89625 -0.26852,-0.43502 -0.95373,-0.61148 -1.52275,-0.39309 -1.37128,0.52587 -1.32324,-0.614978 0.0751,-1.775206 1.27607,-1.05873 1.48362,-4.11908 0.32776,-4.83346 -1.24672,-0.77046 -4.39555,0.31797 -4.39555,1.51995 0,0.60275 0.33282,1.09542 0.73954,1.09542 0.40672,0 0.73954,-0.33194 0.73954,-0.73901 0,-0.40707 0.49931,-0.73902 1.10939,-0.73902 1.5991,0 1.37076,1.23519 -0.73953,4.00203 -1.01698,1.333016 -1.84899,2.613456 -1.84899,2.844766 0,0.35116 3.21478,0.3005 5.40572,-0.0874 z m 66.908365,3.21584 c -2.62816,-1.47453 -3.53168,-3.27175 -3.53168,-7.027436 0,-8.30927 11.23753,-10.31614 14.46831,-2.58393 2.74709,6.574776 -4.69275,13.113036 -10.93663,9.611366 z m 5.75592,-1.91095 c 0.48464,-0.78444 -5.30488,-7.327066 -6.48319,-7.327066 -0.32216,0 -0.58562,1.14085 -0.58562,2.53501 0,1.857496 0.52062,2.944346 1.94874,4.067716 2.13248,1.6772 4.33815,1.9894 5.12007,0.72504 z m 3.28554,-5.066346 c 0,-2.17528 -0.41773,-3.20903 -1.64383,-4.06772 -1.83385,-1.2841 -6.01679,-1.57586 -5.62197,-0.39134 0.34435,1.03252 6.01775,7.203196 6.71103,7.298586 0.30504,0.0349 0.5547,-1.235188 0.5547,-2.840046 z m 65.3715,7.368816 c -2.34591,-0.94866 -4.72464,-4.3752 -4.72464,-6.807476 0,-6.89292 7.30962,-10.46569 12.49124,-6.10569 6.60136,5.55483 0.23183,16.144916 -7.7666,12.913166 z m 3.78073,-3.71271 c -0.25141,-0.40707 -0.77029,-0.73901 -1.15307,-0.73901 -0.38279,0 -0.69586,0.33194 -0.69586,0.73901 0,0.40707 0.51888,0.73901 1.15307,0.73901 0.63419,0 0.94744,-0.33369 0.69586,-0.73901 z m -0.0943,-4.992266 c 0.38662,-2.52418 0.26118,-3.14334 -0.63664,-3.14334 -0.80331,0 -1.11813,0.79841 -1.11813,2.83515 0,1.5584 0.22188,3.05704 0.49303,3.328178 0.66983,0.669138 0.71193,0.569548 1.26174,-3.019988 z M 25.442351,66.778034 c -1.00684,-0.91547 -2.046194,-2.41289 -2.30988,-3.32818 -0.473283,-1.64226 -0.390472,-1.66497 6.596594,-1.66497 4.51527,0 7.07601,0.28478 7.07601,0.78793 0,1.21597 -1.58984,3.91852 -2.89429,4.92012 -1.97411,1.51647 -6.42781,1.1391 -8.468434,-0.7163 z m 73.72973,0.56605 c -0.86201,-0.60449 -1.917256,-2.10138 -2.344886,-3.32818 l -0.77745,-2.23032 h 6.987675 c 6.54638,0 6.98768,0.0874 6.98768,1.51297 0,0.83161 -0.81694,2.32973 -1.81537,3.32818 -2.11883,2.11886 -6.53627,2.4695 -9.037619,0.71805 z m 72.573929,-0.85956 c -0.99758,-1.0762 -1.81367,-2.57397 -1.81367,-3.32818 0,-1.23868 0.67751,-1.37146 7.02616,-1.37146 3.8644,0 7.02617,0.18345 7.02617,0.40707 0,1.18976 -2.42536,4.8291 -3.65701,5.48827 -2.71951,1.45532 -6.62969,0.91023 -8.58165,-1.195 z m -94.208755,-5.74317 c -0.7605,-0.91546 2.47701,-4.44456 20.030396,-21.82885 18.793269,-18.61214 21.052509,-20.61901 22.059569,-19.59574 1.00527,1.02204 0.86184,1.37495 -1.37652,3.38863 -2.37585,2.13824 -2.45887,2.38109 -1.69117,4.94789 0.44411,1.48502 1.16355,5.8473 1.59875,9.69523 0.4352,3.84777 0.98937,7.84159 1.23134,8.87516 0.67961,2.90207 3.12481,6.56027 4.72434,7.0678 1.06118,0.33718 1.44239,1.12861 1.44239,2.99658 v 2.53886 h -21.95531 c -21.057285,0 -22.020765,0.0699 -23.556065,1.50423 -1.39452,1.31031 -1.71755,1.36272 -2.50794,0.41056 z M 7.7143054,58.333714 c -1.1813726,-1.18103 -0.3413786,-3.77841 1.713533,-5.29767 3.3424906,-2.47124 4.3107206,-5.07333 5.5188766,-14.83216 1.524849,-12.31724 3.088239,-15.15537 9.655065,-17.52842 1.379667,-0.49792 2.308235,-1.40815 2.455325,-2.40538 0.36252,-2.45761 2.8817,-3.49869 4.63236,-1.91427 0.77972,0.70582 1.41758,1.8554 1.41758,2.5551 0,0.82986 0.79457,1.43086 2.28813,1.72961 3.08719,0.61671 7.02298,4.71116 7.95811,8.2773 0.42017,1.60207 1.11935,6.17941 1.55385,10.17061 0.86183,7.91863 2.50887,12.11091 5.53785,14.09559 1.32795,0.87005 1.89159,1.89541 1.89159,3.44104 v 2.20185 h -22.06462 c -12.135531,0 -22.2864856,-0.22188 -22.5576666,-0.49268 z M 154.40082,56.625064 c 0,-1.51995 0.56081,-2.56907 1.81268,-3.38932 2.9827,-1.95446 4.75556,-6.70616 5.61055,-15.0378 0.43013,-4.19089 1.30209,-8.91987 1.93794,-10.50884 1.36132,-3.40243 4.50014,-6.25978 7.63183,-6.9476 1.45898,-0.31972 2.2365,-0.94517 2.2365,-1.79705 0,-0.71804 0.63803,-1.883 1.41776,-2.58864 1.88254,-1.7034 4.4991,-0.42978 4.4991,2.18909 0,1.14783 0.4214,1.8229 1.13892,1.8229 0.62633,0 2.48491,0.6866 4.13008,1.52694 4.01516,2.04845 5.57777,5.78213 6.9081,16.50621 1.12232,9.04672 2.19221,12.00924 5.18869,14.36622 1.27729,1.00457 1.86377,2.18891 1.86377,3.76338 v 2.29723 h -22.18788 -22.18788 z m -66.557555,-12.9689 c 0.0367,-4.38027 1.83703,-14.6868 2.97889,-17.05042 1.41653,-2.9323 5.81612,-6.23794 8.302126,-6.23794 0.621081,0 1.286549,-0.92595 1.526239,-2.12532 0.75666,-3.78365 4.67969,-3.78365 5.4364,0 0.25735,1.28759 0.89922,2.12986 1.62688,2.13667 3.64622,0.0349 2.65903,1.50773 -8.434359,12.58333 -6.293256,6.28336 -11.439546,11.09551 -11.436206,10.69368 z m 60.884555,-13.77326 c 0.51119,-4.31598 3.90529,-11.82089 6.7598,-14.94711 1.52241,-1.66672 2.13602,-1.92563 2.95667,-1.24392 0.86236,0.7163 0.54719,1.50074 -1.88592,4.69247 -2.96942,3.89598 -5.11593,9.43946 -5.11593,13.21227 0,1.63701 -0.33998,2.08444 -1.58215,2.08444 -1.46947,0 -1.55018,-0.2708 -1.13246,-3.79762 z m 6.84262,1.02379 c 0.69079,-3.85405 2.23626,-7.42805 4.49018,-10.38305 1.74218,-2.28413 2.02152,-2.4066 3.07873,-1.34875 1.05716,1.05699 1.02344,1.31555 -0.37317,2.84197 -2.06605,2.25897 -3.62414,5.53195 -4.23221,8.89036 -0.38261,2.11309 -0.85432,2.77348 -1.98134,2.77348 -1.30455,0 -1.42055,-0.3267 -0.98221,-2.77348 z m 39.50817,0.90149 c 0,-2.42477 -1.78803,-6.66789 -4.0714,-9.66151 -1.49987,-1.96633 -1.63457,-2.51195 -0.793,-3.21025 2.07142,-1.71913 7.8228,7.85853 7.8228,13.02725 0,1.2247 -0.42472,1.71738 -1.47925,1.71738 -1.08965,0 -1.47925,-0.49268 -1.47925,-1.87269 z m 7.02103,-0.85432 c -0.76015,-4.66749 -2.5964,-9.00985 -5.317,-12.57389 -2.26601,-2.96863 -2.4447,-3.50446 -1.48798,-4.46133 0.95687,-0.9574 1.40569,-0.67088 3.73764,2.38353 4.62844,6.06166 7.57073,16.66555 4.77864,17.22182 -0.94429,0.18868 -1.36499,-0.44376 -1.71144,-2.57013 z"
       id="path125" /></g></svg>
